<svg xmlns="http://www.w3.org/2000/svg" width="40.763" height="51.6" viewBox="0 0 40.763 51.6">
  <g id="document" transform="translate(-38.6)">
    <g id="Group_3327" data-name="Group 3327" transform="translate(38.6 0)">
      <g id="Group_3326" data-name="Group 3326" transform="translate(0 0)">
        <path id="Path_116308" data-name="Path 116308" d="M79.307,11.454c-.056,0-.056-.056-.112-.112s-.056-.112-.112-.168L69.425.337C69.369.281,69.257.225,69.2.168c-.056,0-.056-.056-.112-.056A1.058,1.058,0,0,0,68.639,0H44.945A6.374,6.374,0,0,0,38.6,6.345V45.255A6.374,6.374,0,0,0,44.945,51.6H73.019a6.374,6.374,0,0,0,6.345-6.345V11.847C79.363,11.735,79.307,11.566,79.307,11.454Zm-9.6-7.636,6.232,7.019H69.706ZM77.23,45.2a4.218,4.218,0,0,1-4.211,4.267H44.945a4.205,4.205,0,0,1-4.211-4.211V6.289a4.205,4.205,0,0,1,4.211-4.211H67.572v9.77a1.066,1.066,0,0,0,1.067,1.067H77.23V45.2Z" transform="translate(-38.6 0)" fill="#f33632"/>
        <path id="Path_116309" data-name="Path 116309" d="M86.067,78.934h9.377a1.066,1.066,0,0,0,1.067-1.067A1.032,1.032,0,0,0,95.444,76.8H86.067a1.067,1.067,0,0,0,0,2.134Z" transform="translate(-78.487 -66.02)" fill="#f33632"/>
        <path id="Path_116310" data-name="Path 116310" d="M95.444,275.6H86.067a1.067,1.067,0,0,0,0,2.134h9.377a1.066,1.066,0,0,0,1.067-1.067A1.1,1.1,0,0,0,95.444,275.6Z" transform="translate(-78.487 -236.914)" fill="#f33632"/>
        <path id="Path_116311" data-name="Path 116311" d="M85,128.267a1.066,1.066,0,0,0,1.067,1.067h25.042a1.067,1.067,0,1,0,0-2.134H86.067A1.066,1.066,0,0,0,85,128.267Z" transform="translate(-78.487 -109.345)" fill="#f33632"/>
        <path id="Path_116312" data-name="Path 116312" d="M111.109,164.8H86.067a1.067,1.067,0,0,0,0,2.134h25.042a1.066,1.066,0,0,0,1.067-1.067A1.032,1.032,0,0,0,111.109,164.8Z" transform="translate(-78.487 -141.667)" fill="#f33632"/>
        <path id="Path_116313" data-name="Path 116313" d="M111.109,202H86.067a1.067,1.067,0,1,0,0,2.134h25.042a1.066,1.066,0,0,0,1.067-1.067A1.032,1.032,0,0,0,111.109,202Z" transform="translate(-78.487 -173.645)" fill="#f33632"/>
        <path id="Path_116314" data-name="Path 116314" d="M111.109,239.2H86.067a1.067,1.067,0,0,0,0,2.134h25.042a1.067,1.067,0,0,0,0-2.134Z" transform="translate(-78.487 -205.623)" fill="#f33632"/>
      </g>
    </g>
  </g>
</svg>
