<svg id="instagram" xmlns="http://www.w3.org/2000/svg" width="17.693" height="17.693" viewBox="0 0 17.693 17.693">
  <path id="Path_115911" data-name="Path 115911" d="M3.5,17.693h10.69a3.506,3.506,0,0,0,3.5-3.5V3.5a3.506,3.506,0,0,0-3.5-3.5H3.5A3.506,3.506,0,0,0,0,3.5v10.69A3.506,3.506,0,0,0,3.5,17.693ZM1.106,3.5a2.4,2.4,0,0,1,2.4-2.4h10.69a2.4,2.4,0,0,1,2.4,2.4v10.69a2.4,2.4,0,0,1-2.4,2.4H3.5a2.4,2.4,0,0,1-2.4-2.4Z" fill="#fff"/>
  <path id="Path_115912" data-name="Path 115912" d="M10.389,14.908A4.519,4.519,0,1,0,5.87,10.389a4.524,4.524,0,0,0,4.519,4.519Zm0-7.933a3.413,3.413,0,1,1-3.413,3.413,3.417,3.417,0,0,1,3.413-3.413Z" transform="translate(-1.543 -1.542)" fill="#fff"/>
  <path id="Path_115913" data-name="Path 115913" d="M17.9,6.458a1.244,1.244,0,0,0,1.275-1.269,1.274,1.274,0,0,0-2.549,0A1.241,1.241,0,0,0,17.9,6.458Zm.13-1.39c.233.206-.3.456-.3.122C17.736,4.99,18.006,5.042,18.034,5.067Z" transform="translate(-4.37 -1.03)" fill="#fff"/>
</svg>
