<svg id="vk-logo-of-social-network" xmlns="http://www.w3.org/2000/svg" width="18.209" height="10.39" viewBox="0 0 18.209 10.39">
  <g id="Group_3154" data-name="Group 3154" transform="translate(0 0)">
    <path id="Path_115914" data-name="Path 115914" d="M16.145,118.647q.388-.5.616-.806,1.64-2.181,1.422-2.787l-.057-.095a.553.553,0,0,0-.294-.157,1.5,1.5,0,0,0-.607-.024l-2.73.019a.778.778,0,0,0-.19,0,.526.526,0,0,0-.123.028l-.047.024-.038.028a.419.419,0,0,0-.1.1.643.643,0,0,0-.095.166,15.468,15.468,0,0,1-1.014,2.133q-.351.588-.645,1.019a4.864,4.864,0,0,1-.493.635,3.423,3.423,0,0,1-.36.327c-.108.082-.19.117-.246.1s-.111-.025-.161-.038a.626.626,0,0,1-.213-.232,1.042,1.042,0,0,1-.109-.37c-.019-.148-.03-.277-.033-.384s0-.259,0-.455.009-.328.009-.4q0-.36.014-.782t.024-.668q.009-.246.009-.521a2.176,2.176,0,0,0-.033-.431,1.511,1.511,0,0,0-.1-.3.509.509,0,0,0-.194-.227,1.1,1.1,0,0,0-.318-.128,6.316,6.316,0,0,0-1.28-.123,6.235,6.235,0,0,0-2.266.228,1.28,1.28,0,0,0-.36.285q-.171.209-.047.227a1.163,1.163,0,0,1,.806.408l.057.114a1.833,1.833,0,0,1,.133.436,4.424,4.424,0,0,1,.085.692,7.366,7.366,0,0,1,0,1.185q-.047.493-.09.768a1.538,1.538,0,0,1-.128.445,1.862,1.862,0,0,1-.114.209.167.167,0,0,1-.047.047.712.712,0,0,1-.256.047.6.6,0,0,1-.322-.133,2.243,2.243,0,0,1-.393-.365,4.853,4.853,0,0,1-.46-.65q-.256-.417-.531-.986l-.152-.275q-.142-.265-.389-.772t-.436-.981a.628.628,0,0,0-.228-.3l-.047-.028a.645.645,0,0,0-.152-.08,1.022,1.022,0,0,0-.218-.062l-2.6.019a.66.66,0,0,0-.54.18l-.038.057a.306.306,0,0,0-.029.152.754.754,0,0,0,.057.256Q.626,116.76,1.294,118t1.161,2q.493.759,1.005,1.432t.678.862q.166.19.261.284l.237.228a5.643,5.643,0,0,0,.668.545,11.249,11.249,0,0,0,.977.626,5.292,5.292,0,0,0,1.247.5,4.3,4.3,0,0,0,1.384.156H10a.751.751,0,0,0,.5-.209l.038-.047a.643.643,0,0,0,.071-.175.97.97,0,0,0,.033-.261,3.119,3.119,0,0,1,.062-.735,1.941,1.941,0,0,1,.161-.493,1.211,1.211,0,0,1,.2-.28.816.816,0,0,1,.161-.137.764.764,0,0,1,.076-.033.6.6,0,0,1,.536.147,3.155,3.155,0,0,1,.578.55q.27.327.649.735a4.438,4.438,0,0,0,.664.607l.19.114a2.329,2.329,0,0,0,.493.209,1.065,1.065,0,0,0,.531.047l2.427-.038a1.1,1.1,0,0,0,.559-.118.468.468,0,0,0,.237-.261.736.736,0,0,0,0-.322,1.177,1.177,0,0,0-.066-.251,1.283,1.283,0,0,0-.062-.118,9.443,9.443,0,0,0-1.811-2.1l-.019-.019-.009-.01-.009-.009h-.01a10.885,10.885,0,0,1-.768-.778.729.729,0,0,1-.133-.768A7.078,7.078,0,0,1,16.145,118.647Z" transform="translate(0 -114.303)" fill="#fff"/>
  </g>
</svg>
